<svg width="30" height="32" viewBox="0 0 30 32" fill="none" xmlns="http://www.w3.org/2000/svg">
<path d="M5 7.91203C7.54854 6.45821 12.5786 7.91205 15.0393 7.91203C17.5 7.91202 21.4607 6.31517 24 7.36384C26.9605 8.58647 28.4693 10.8674 29.0391 12.4165C30.321 15.9015 29.7278 19.9096 28.5391 23.4276C26.9902 28.0118 22.5389 31.7315 20.0391 31.9361C18.0544 32.0986 17 31.3403 15.0393 31.4356C13.0786 31.531 13.2169 31.9361 10.7169 31.9361C8 31.9361 4.95678 29.6922 3.03911 26.9311C0.76571 23.6579 -0.214583 17.9221 0.0390313 15.4195C0.398918 11.8684 2.76062 9.18949 5 7.91203Z" fill="white"/>
<path d="M15.371 8.41164C15.371 8.41164 15.0472 5.74375 16.3739 3.50833C17.7007 1.2728 19.5252 0.577987 19.5252 0.577987" stroke="white" stroke-linecap="round"/>
</svg>
